<?xml version="1.0" encoding="UTF-8"?>
<svg id="Layer_3" xmlns="http://www.w3.org/2000/svg" version="1.1" viewBox="0 0 334.2 128.6">
  <!-- Generator: Adobe Illustrator 29.1.0, SVG Export Plug-In . SVG Version: 2.1.0 Build 142)  -->
  <defs>
    <style>
      .st0 {
        fill: #fff;
      }

      .st0, .st1 {
        stroke: #231f20;
        stroke-linecap: round;
        stroke-linejoin: round;
        stroke-width: 2px;
      }

      .st2 {
        font-family: MyriadPro-Regular, 'Myriad Pro';
        font-size: 12px;
      }

      .st1 {
        fill: #231f20;
      }
    </style>
  </defs>
  <g>
    <path class="st0" d="M277.5,76.1l-36.1,13.1c-3.3-9.8,1.8-20.6,11.6-24.1s20.6,1.4,24.4,11Z"/>
    <path class="st1" d="M277.6,76.5c3.6,10-1.5,21-11.5,24.6-10,3.6-21-1.5-24.6-11.5,0-.2-.1-.3-.2-.5l36.1-13.1c0,.2.1.3.2.5Z"/>
  </g>
  <text class="st2" transform="translate(960 540)"><tspan x="0" y="0">function dropClaw() {</tspan><tspan x="0" y="14.4" xml:space="preserve">    claw_rope_el.style.transform = `scale(1,4.9)`</tspan><tspan x="0" y="28.8" xml:space="preserve">    claw_hands_el.style.transform = `translateY(150px)`</tspan><tspan x="0" y="43.2" xml:space="preserve">    setTimeout(raiseClaw, 1000);</tspan><tspan x="0" y="57.6">}</tspan></text>
  <g>
    <path class="st0" d="M39.4,107.9H1c.3-10.4,8.8-18.7,19.2-18.7s18.9,8.3,19.2,18.7Z"/>
    <path class="st1" d="M39.4,108.4c0,10.6-8.6,19.2-19.2,19.2S1,119,1,108.4s0-.3,0-.5h38.4c0,.2,0,.3,0,.5Z"/>
  </g>
  <g>
    <path class="st0" d="M34.1,121.6l-27.1-27.1c7.5-7.1,19.4-7,26.8.4,7.4,7.4,7.5,19.3.4,26.8Z"/>
    <path class="st1" d="M33.8,122c-7.5,7.5-19.7,7.5-27.2,0-7.5-7.5-7.5-19.7,0-27.2s.2-.2.4-.4l27.1,27.1c-.1.1-.2.2-.4.4Z"/>
  </g>
  <g>
    <path class="st0" d="M39.4,74.4H1c.3-10.4,8.8-18.7,19.2-18.7s18.9,8.3,19.2,18.7Z"/>
    <path class="st1" d="M39.4,74.9c0,10.6-8.6,19.2-19.2,19.2S1,85.5,1,74.9s0-.3,0-.5h38.4c0,.2,0,.3,0,.5Z"/>
  </g>
  <g>
    <path class="st0" d="M62.9,72.3l-36.1,13.1c-3.3-9.8,1.8-20.6,11.6-24.1s20.6,1.4,24.4,11Z"/>
    <path class="st1" d="M63.1,72.8c3.6,10-1.5,21-11.5,24.6-10,3.6-21-1.5-24.6-11.5s-.1-.3-.2-.5l36.1-13.1c0,.2.1.3.2.5Z"/>
  </g>
  <g>
    <path class="st0" d="M69.7,117.6l-33.2-19.2c5.4-8.8,16.9-11.8,26-6.6s12.2,16.7,7.3,25.8Z"/>
    <path class="st1" d="M69.4,118c-5.3,9.2-17,12.3-26.2,7s-12.3-17-7-26.2.2-.3.3-.4l33.2,19.2c0,.2-.2.3-.2.4Z"/>
  </g>
  <g>
    <path class="st0" d="M107.4,107.9h-38.4c.3-10.4,8.8-18.7,19.2-18.7s18.9,8.3,19.2,18.7Z"/>
    <path class="st1" d="M107.4,108.4c0,10.6-8.6,19.2-19.2,19.2s-19.2-8.6-19.2-19.2,0-.3,0-.5h38.4c0,.2,0,.3,0,.5Z"/>
  </g>
  <g>
    <path class="st0" d="M138.6,101.4l-36.1,13.1c-3.3-9.8,1.8-20.6,11.6-24.1s20.6,1.4,24.4,11Z"/>
    <path class="st1" d="M138.7,101.8c3.6,10-1.5,21-11.5,24.6-10,3.6-21-1.5-24.6-11.5s-.1-.3-.2-.5l36.1-13.1c0,.2.1.3.2.5Z"/>
  </g>
  <g>
    <path class="st0" d="M174.8,107.9h-38.4c.3-10.4,8.8-18.7,19.2-18.7s18.9,8.3,19.2,18.7Z"/>
    <path class="st1" d="M174.8,108.4c0,10.6-8.6,19.2-19.2,19.2s-19.2-8.6-19.2-19.2,0-.3,0-.5h38.4c0,.2,0,.3,0,.5Z"/>
  </g>
  <g>
    <path class="st0" d="M205.6,117.6l-33.2-19.2c5.4-8.8,16.9-11.8,26-6.6s12.2,16.7,7.3,25.8Z"/>
    <path class="st1" d="M205.3,118c-5.3,9.2-17,12.3-26.2,7s-12.3-17-7-26.2.2-.3.3-.4l33.2,19.2c0,.2-.2.3-.2.4Z"/>
  </g>
  <g>
    <path class="st0" d="M228.9,107.9h-38.4c.3-10.4,8.8-18.7,19.2-18.7s18.9,8.3,19.2,18.7Z"/>
    <path class="st1" d="M228.9,108.4c0,10.6-8.6,19.2-19.2,19.2s-19.2-8.6-19.2-19.2,0-.3,0-.5h38.4c0,.2,0,.3,0,.5Z"/>
  </g>
  <g>
    <path class="st0" d="M262.7,107.9h-38.4c.3-10.4,8.8-18.7,19.2-18.7s18.9,8.3,19.2,18.7Z"/>
    <path class="st1" d="M262.8,108.4c0,10.6-8.6,19.2-19.2,19.2s-19.2-8.6-19.2-19.2,0-.3,0-.5h38.4c0,.2,0,.3,0,.5Z"/>
  </g>
  <g>
    <path class="st0" d="M299.9,101.4l-36.1,13.1c-3.3-9.8,1.8-20.6,11.6-24.1s20.6,1.4,24.4,11Z"/>
    <path class="st1" d="M300,101.8c3.6,10-1.5,21-11.5,24.6-10,3.6-21-1.5-24.6-11.5,0-.2-.1-.3-.2-.5l36.1-13.1c0,.2.1.3.2.5Z"/>
  </g>
  <g>
    <path class="st0" d="M315.2,87h-38.4c.3-10.4,8.8-18.7,19.2-18.7s18.9,8.3,19.2,18.7Z"/>
    <path class="st1" d="M315.2,87.5c0,10.6-8.6,19.2-19.2,19.2s-19.2-8.6-19.2-19.2,0-.3,0-.5h38.4c0,.2,0,.3,0,.5Z"/>
  </g>
  <g>
    <path class="st0" d="M323.2,91.5l-19.2,33.2c-8.8-5.4-11.8-16.9-6.6-26s16.7-12.2,25.8-7.3Z"/>
    <path class="st1" d="M323.6,91.8c9.2,5.3,12.3,17,7,26.2s-17,12.3-26.2,7-.3-.2-.4-.3l19.2-33.2c.2,0,.3.2.4.2Z"/>
  </g>
  <g>
    <path class="st0" d="M330.4,84.1l-33.2-19.2c5.4-8.8,16.9-11.8,26-6.6s12.2,16.7,7.3,25.8Z"/>
    <path class="st1" d="M330.1,84.5c-5.3,9.2-17,12.3-26.2,7s-12.3-17-7-26.2.2-.3.3-.4l33.2,19.2c0,.2-.2.3-.2.4Z"/>
  </g>
  <g>
    <path class="st0" d="M332.7,44.3h-38.4c.3-10.4,8.8-18.7,19.2-18.7s18.9,8.3,19.2,18.7Z"/>
    <path class="st1" d="M332.7,44.8c0,10.6-8.6,19.2-19.2,19.2s-19.2-8.6-19.2-19.2,0-.3,0-.5h38.4c0,.2,0,.3,0,.5Z"/>
  </g>
  <g>
    <path class="st0" d="M332.1,29.4l-33.2-19.2c5.4-8.8,16.9-11.8,26-6.6s12.2,16.7,7.3,25.8Z"/>
    <path class="st1" d="M331.9,29.8c-5.3,9.2-17,12.3-26.2,7s-12.3-17-7-26.2.2-.3.3-.4l33.2,19.2c0,.2-.2.3-.2.4Z"/>
  </g>
  <g>
    <path class="st0" d="M237.2,21h-38.4c.3-10.4,8.8-18.7,19.2-18.7s18.9,8.3,19.2,18.7Z"/>
    <path class="st1" d="M237.2,21.5c0,10.6-8.6,19.2-19.2,19.2s-19.2-8.6-19.2-19.2,0-.3,0-.5h38.4c0,.2,0,.3,0,.5Z"/>
  </g>
  <g>
    <path class="st1" d="M164.9,35.1l-33.2-19.2c5.4-8.8,16.9-11.8,26-6.6s12.2,16.7,7.3,25.8Z"/>
    <path class="st1" d="M164.6,35.5c-5.3,9.2-17,12.3-26.2,7s-12.3-17-7-26.2.2-.3.3-.4l33.2,19.2c0,.2-.2.3-.2.4Z"/>
  </g>
  <g>
    <path class="st0" d="M202,20.3l-36.1,13.1c-3.3-9.8,1.8-20.6,11.6-24.1s20.6,1.4,24.4,11Z"/>
    <path class="st1" d="M202.2,20.7c3.6,10-1.5,21-11.5,24.6-10,3.6-21-1.5-24.6-11.5s-.1-.3-.2-.5l36.1-13.1c0,.2.1.3.2.5Z"/>
  </g>
  <g>
    <path class="st0" d="M129.1,32.6h-38.4c.3-10.4,8.8-18.7,19.2-18.7s18.9,8.3,19.2,18.7Z"/>
    <path class="st1" d="M129.1,33.1c0,10.6-8.6,19.2-19.2,19.2s-19.2-8.6-19.2-19.2,0-.3,0-.5h38.4c0,.2,0,.3,0,.5Z"/>
  </g>
  <g>
    <path class="st0" d="M67.3,21H28.9c.3-10.4,8.8-18.7,19.2-18.7s18.9,8.3,19.2,18.7Z"/>
    <path class="st1" d="M67.3,21.5c0,10.6-8.6,19.2-19.2,19.2s-19.2-8.6-19.2-19.2,0-.3,0-.5h38.4c0,.2,0,.3,0,.5Z"/>
  </g>
  <g>
    <path class="st0" d="M36.1,30.1L2.8,11C8.2,2.1,19.8-.9,28.8,4.4s12.2,16.7,7.3,25.8Z"/>
    <path class="st1" d="M35.8,30.6c-5.3,9.2-17,12.3-26.2,7S-2.7,20.6,2.6,11.4s.2-.3.3-.4l33.2,19.2c0,.2-.2.3-.2.4Z"/>
  </g>
  <g>
    <path class="st0" d="M42.4,48.2H4c.3-10.4,8.8-18.7,19.2-18.7s18.9,8.3,19.2,18.7Z"/>
    <path class="st1" d="M42.4,48.7c0,10.6-8.6,19.2-19.2,19.2S4,59.3,4,48.7s0-.3,0-.5h38.4c0,.2,0,.3,0,.5Z"/>
  </g>
  <g>
    <path class="st0" d="M69.7,58.6l-33.2-19.2c5.4-8.8,16.9-11.8,26-6.6s12.2,16.7,7.3,25.8Z"/>
    <path class="st1" d="M69.4,59c-5.3,9.2-17,12.3-26.2,7s-12.3-17-7-26.2.2-.3.3-.4l33.2,19.2c0,.2-.2.3-.2.4Z"/>
  </g>
  <g>
    <path class="st0" d="M109.9,55.2h-38.4c.3-10.4,8.8-18.7,19.2-18.7s18.9,8.3,19.2,18.7Z"/>
    <path class="st1" d="M109.9,55.7c0,10.6-8.6,19.2-19.2,19.2s-19.2-8.6-19.2-19.2,0-.3,0-.5h38.4c0,.2,0,.3,0,.5Z"/>
  </g>
  <g>
    <path class="st0" d="M94,22.5l-36.1,13.1c-3.3-9.8,1.8-20.6,11.6-24.1s20.6,1.4,24.4,11Z"/>
    <path class="st1" d="M94.2,23c3.6,10-1.5,21-11.5,24.6s-21-1.5-24.6-11.5-.1-.3-.2-.5l36.1-13.1c0,.2.1.3.2.5Z"/>
  </g>
  <g>
    <path class="st0" d="M80.7,62.6l-19.2,33.2c-8.8-5.4-11.8-16.9-6.6-26,5.2-9,16.7-12.2,25.8-7.3Z"/>
    <path class="st1" d="M81.1,62.9c9.2,5.3,12.3,17,7,26.2-5.3,9.2-17,12.3-26.2,7s-.3-.2-.4-.3l19.2-33.2c.2,0,.3.2.4.2Z"/>
  </g>
  <g>
    <path class="st0" d="M113.1,63.8l-19.2,33.2c-8.8-5.4-11.8-16.9-6.6-26s16.7-12.2,25.8-7.3Z"/>
    <path class="st1" d="M113.5,64c9.2,5.3,12.3,17,7,26.2s-17,12.3-26.2,7-.3-.2-.4-.3l19.2-33.2c.2,0,.3.2.4.2Z"/>
  </g>
  <g>
    <path class="st0" d="M156.4,73.1l-36.1,13.1c-3.3-9.8,1.8-20.6,11.6-24.1s20.6,1.4,24.4,11Z"/>
    <path class="st1" d="M156.6,73.6c3.6,10-1.5,21-11.5,24.6-10,3.6-21-1.5-24.6-11.5s-.1-.3-.2-.5l36.1-13.1c0,.2.1.3.2.5Z"/>
  </g>
  <g>
    <path class="st0" d="M189.8,70.6l-36.1,13.1c-3.3-9.8,1.8-20.6,11.6-24.1s20.6,1.4,24.4,11Z"/>
    <path class="st1" d="M189.9,71.1c3.6,10-1.5,21-11.5,24.6-10,3.6-21-1.5-24.6-11.5s-.1-.3-.2-.5l36.1-13.1c0,.2.1.3.2.5Z"/>
  </g>
  <g>
    <path class="st0" d="M167.1,53.4h-38.4c.3-10.4,8.8-18.7,19.2-18.7s18.9,8.3,19.2,18.7Z"/>
    <path class="st1" d="M167.1,53.9c0,10.6-8.6,19.2-19.2,19.2s-19.2-8.6-19.2-19.2,0-.3,0-.5h38.4c0,.2,0,.3,0,.5Z"/>
  </g>
  <g>
    <path class="st0" d="M136.3,45.3l-36.1,13.1c-3.3-9.8,1.8-20.6,11.6-24.1s20.6,1.4,24.4,11Z"/>
    <path class="st1" d="M136.5,45.7c3.6,10-1.5,21-11.5,24.6-10,3.6-21-1.5-24.6-11.5s-.1-.3-.2-.5l36.1-13.1c0,.2.1.3.2.5Z"/>
  </g>
  <g>
    <path class="st0" d="M182.9,32.5l-19.2,33.2c-8.8-5.4-11.8-16.9-6.6-26s16.7-12.2,25.8-7.3Z"/>
    <path class="st1" d="M183.4,32.8c9.2,5.3,12.3,17,7,26.2s-17,12.3-26.2,7c-.1,0-.3-.2-.4-.3l19.2-33.2c.2,0,.3.2.4.2Z"/>
  </g>
  <g>
    <path class="st0" d="M219.4,43.5h-38.4c.3-10.4,8.8-18.7,19.2-18.7s18.9,8.3,19.2,18.7Z"/>
    <path class="st1" d="M219.4,44c0,10.6-8.6,19.2-19.2,19.2s-19.2-8.6-19.2-19.2,0-.3,0-.5h38.4c0,.2,0,.3,0,.5Z"/>
  </g>
  <g>
    <path class="st0" d="M214,83.1l-33.2-19.2c5.4-8.8,16.9-11.8,26-6.6s12.2,16.7,7.3,25.8Z"/>
    <path class="st1" d="M213.8,83.5c-5.3,9.2-17,12.3-26.2,7s-12.3-17-7-26.2.2-.3.3-.4l33.2,19.2c0,.2-.2.3-.2.4Z"/>
  </g>
  <g>
    <path class="st0" d="M242.3,72l-36.1,13.1c-3.3-9.8,1.8-20.6,11.6-24.1s20.6,1.4,24.4,11Z"/>
    <path class="st1" d="M242.4,72.4c3.6,10-1.5,21-11.5,24.6-10,3.6-21-1.5-24.6-11.5,0-.2-.1-.3-.2-.5l36.1-13.1c0,.2.1.3.2.5Z"/>
  </g>
  <g>
    <path class="st0" d="M245.8,42.1l-36.1,13.1c-3.3-9.8,1.8-20.6,11.6-24.1s20.6,1.4,24.4,11Z"/>
    <path class="st1" d="M246,42.5c3.6,10-1.5,21-11.5,24.6-10,3.6-21-1.5-24.6-11.5,0-.2-.1-.3-.2-.5l36.1-13.1c0,.2.1.3.2.5Z"/>
  </g>
  <g>
    <path class="st0" d="M291.1,54.7h-38.4c.3-10.4,8.8-18.7,19.2-18.7s18.9,8.3,19.2,18.7Z"/>
    <path class="st1" d="M291.2,55.2c0,10.6-8.6,19.2-19.2,19.2s-19.2-8.6-19.2-19.2,0-.3,0-.5h38.4c0,.2,0,.3,0,.5Z"/>
  </g>
  <g>
    <path class="st0" d="M266.4,67.3h-38.4c.3-10.4,8.8-18.7,19.2-18.7s18.9,8.3,19.2,18.7Z"/>
    <path class="st1" d="M266.5,67.8c0,10.6-8.6,19.2-19.2,19.2s-19.2-8.6-19.2-19.2,0-.3,0-.5h38.4c0,.2,0,.3,0,.5Z"/>
  </g>
  <g>
    <path class="st0" d="M309,57.5l-36.1,13.1c-3.3-9.8,1.8-20.6,11.6-24.1s20.6,1.4,24.4,11Z"/>
    <path class="st1" d="M309.2,58c3.6,10-1.5,21-11.5,24.6-10,3.6-21-1.5-24.6-11.5,0-.2-.1-.3-.2-.5l36.1-13.1c0,.2.1.3.2.5Z"/>
  </g>
  <g>
    <path class="st0" d="M303.2,32.1h-38.4c.3-10.4,8.8-18.7,19.2-18.7s18.9,8.3,19.2,18.7Z"/>
    <path class="st1" d="M303.2,32.6c0,10.6-8.6,19.2-19.2,19.2s-19.2-8.6-19.2-19.2,0-.3,0-.5h38.4c0,.2,0,.3,0,.5Z"/>
  </g>
  <g>
    <path class="st0" d="M268.8,29h-38.4c.3-10.4,8.8-18.7,19.2-18.7s18.9,8.3,19.2,18.7Z"/>
    <path class="st1" d="M268.8,29.5c0,10.6-8.6,19.2-19.2,19.2s-19.2-8.6-19.2-19.2,0-.3,0-.5h38.4c0,.2,0,.3,0,.5Z"/>
  </g>
</svg>